<!-- icon666.com - MILLIONS vector ICONS FREE --><svg version="1.1" id="Layer_1" xmlns="http://www.w3.org/2000/svg" xmlns:xlink="http://www.w3.org/1999/xlink" x="0px" y="0px" viewBox="0 0 512 512" style="enable-background:new 0 0 512 512;" xml:space="preserve"><path style="fill:#E1E3FA;" d="M415.772,339.41H96.228C43.167,339.41,0,294.393,0,239.28c0-42.748,26.403-80.561,64.377-94.408 c5.214-59.326,53.34-105.997,111.74-105.997c10.809,0,21.504,1.608,31.917,4.863c26.5-24.797,60.165-38.339,95.896-38.339 c76.047,0,138.529,61.617,143.803,139.427C485.652,158.705,512,196.579,512,239.283C512,294.396,468.834,339.41,415.772,339.41z"></path><path style="fill:#C4C8F5;" d="M447.732,144.821C442.458,67.011,380.163,5.388,304.117,5.388c-20.739,0-41.054,4.689-58.888,13.362 v320.66h170.543c53.062,0,96.228-45.017,96.228-100.13C512,196.577,485.651,158.7,447.732,144.821z"></path><g><path style="fill:#00D7DF;" d="M128.188,439.731c-9.236,0-16.72-7.49-16.72-16.72v-33.44c0-9.231,7.484-16.72,16.72-16.72 s16.72,7.49,16.72,16.72v33.44C144.908,432.242,137.424,439.731,128.188,439.731z"></path><path style="fill:#00D7DF;" d="M195.068,506.612c-9.236,0-16.72-7.49-16.72-16.72v-33.44c0-9.231,7.484-16.72,16.72-16.72 s16.72,7.49,16.72,16.72v33.44C211.789,499.122,204.305,506.612,195.068,506.612z"></path><path style="fill:#00D7DF;" d="M261.949,439.731c-9.236,0-16.72-7.49-16.72-16.72v-33.44c0-9.231,7.484-16.72,16.72-16.72 c9.236,0,16.72,7.49,16.72,16.72v33.44C278.669,432.242,271.185,439.731,261.949,439.731z"></path><path style="fill:#00D7DF;" d="M328.83,506.612c-9.236,0-16.72-7.49-16.72-16.72v-33.44c0-9.231,7.484-16.72,16.72-16.72 c9.236,0,16.72,7.49,16.72,16.72v33.44C345.55,499.122,338.066,506.612,328.83,506.612z"></path><path style="fill:#00D7DF;" d="M395.71,439.731c-9.236,0-16.72-7.49-16.72-16.72v-33.44c0-9.231,7.484-16.72,16.72-16.72 c9.236,0,16.72,7.49,16.72,16.72v33.44C412.43,432.242,404.946,439.731,395.71,439.731z"></path></g></svg>