<!-- icon666.com - MILLIONS vector ICONS FREE --><svg version="1.1" id="Capa_1" xmlns="http://www.w3.org/2000/svg" xmlns:xlink="http://www.w3.org/1999/xlink" x="0px" y="0px" viewBox="0 0 512 512" style="enable-background:new 0 0 512 512;" xml:space="preserve"><path style="fill:#A4D9F5;" d="M512,165c0,41.4-34.6,75-76,75h-22.8L346,171.301l-99-101.1C261.7,28.2,301.601,0,346,0 c53.401,0,97.5,39.901,104.099,91.199C484.6,98.101,512,128.401,512,165z"></path><g><circle style="fill:#81C8EE;" cx="46" cy="437" r="15"></circle><circle style="fill:#81C8EE;" cx="406" cy="437" r="15"></circle><circle style="fill:#81C8EE;" cx="106" cy="497" r="15"></circle><circle style="fill:#81C8EE;" cx="166" cy="437" r="15"></circle><circle style="fill:#81C8EE;" cx="346" cy="497" r="15"></circle><path style="fill:#81C8EE;" d="M241,497c0,8.401-6.599,15-15,15s-15-6.599-15-15s6.599-15,15-15S241,488.599,241,497z"></path><circle style="fill:#81C8EE;" cx="286" cy="437" r="15"></circle></g><path style="fill:#CAE8F9;" d="M360.399,180.901C353.2,113.101,295.6,60,226,60S98.8,113.101,91.601,180.901 C40.6,188.101,0,231.899,0,285c0,57.9,48.1,107,106,107h240c57.9,0,105-49.1,105-107C451,231.899,411.4,188.101,360.399,180.901z"></path><path style="fill:#81C8EE;" d="M241,497c0,8.401-6.599,15-15,15v-30C234.401,482,241,488.599,241,497z"></path><path style="fill:#B7E0F6;" d="M451,285c0,57.9-47.1,107-105,107H226V60c69.6,0,127.2,53.101,134.399,120.901 C411.4,188.101,451,231.899,451,285z"></path></svg>