<!-- icon666.com - MILLIONS vector ICONS FREE --><svg version="1.1" id="Capa_1" xmlns="http://www.w3.org/2000/svg" xmlns:xlink="http://www.w3.org/1999/xlink" x="0px" y="0px" viewBox="0 0 512 512" style="enable-background:new 0 0 512 512;" xml:space="preserve"><path style="fill:#FEA832;" d="M164.93,91c-41.4,0-75,33.6-75,75s33.6,75,75,75s75-33.6,75-75S206.33,91,164.93,91z"></path><g><path style="fill:#FEDB41;" d="M179.93,15v31c0,9.899-7.5,15-15,15s-15-5.101-15-15V15c0-9.901,7.5-15,15-15 S179.93,5.099,179.93,15z"></path><path style="fill:#FEDB41;" d="M179.93,286v30c0,9.899-7.5,15-15,15s-15-5.101-15-15v-30c0-9.901,7.5-15,15-15 S179.93,276.099,179.93,286z"></path><path style="fill:#FEDB41;" d="M44.93,181h-30c-19.773,0-19.854-30,0-30h30C64.703,151,64.784,181,44.93,181z"></path></g><path style="fill:#FCBF29;" d="M314.93,181h-30c-19.773,0-19.854-30,0-30h30C334.703,151,334.784,181,314.93,181z"></path><path style="fill:#FEDB41;" d="M48.255,261.464l21.211-21.211c13.945-13.945,35.271,7.151,21.211,21.211l-21.211,21.211 C55.512,296.629,34.116,275.603,48.255,261.464z"></path><g><path style="fill:#FCBF29;" d="M239.183,70.536l21.211-21.211c13.945-13.945,35.271,7.151,21.211,21.211l-21.211,21.211 C246.44,105.702,225.044,84.675,239.183,70.536z"></path><path style="fill:#FCBF29;" d="M260.394,282.675l-21.211-21.211c-13.945-13.945,7.151-35.271,21.211-21.211l21.211,21.211 C295.816,275.675,274.135,296.416,260.394,282.675z"></path></g><path style="fill:#FEDB41;" d="M69.466,91.747L48.255,70.536C34.31,56.591,55.406,35.265,69.466,49.325l21.211,21.211 C104.888,84.747,83.207,105.488,69.466,91.747z"></path><g><path style="fill:#FCBF29;" d="M164.93,0c7.5,0,15,5.099,15,15v31c0,9.899-7.5,15-15,15V0z"></path><path style="fill:#FCBF29;" d="M179.93,286v30c0,9.899-7.5,15-15,15v-60C172.43,271,179.93,276.099,179.93,286z"></path></g><path style="fill:#FE9923;" d="M239.93,166c0,41.4-33.6,75-75,75V91C206.33,91,239.93,124.6,239.93,166z"></path><path style="fill:#E1E4FB;" d="M421.93,331c-3.3,0-6.599,0.3-9.901,0.899C394.929,295,356.33,271,314.93,271 c-53.101,0-96.899,39.899-103.5,91.5c-35.099,6.301-61.5,36.899-61.5,73.5c0,41.4,33.6,76,75,76h197.3 c24.901,0,47.1-10.201,63.3-26.4c16.199-16.5,26.4-40,26.4-64.6C511.93,371.499,471.431,331,421.93,331z"></path><path style="fill:#C5C9F7;" d="M511.93,421c0,24.6-10.201,48.1-26.4,64.6c-16.199,16.199-38.399,26.4-63.3,26.4h-107.3V271 c41.4,0,79.999,24,97.099,60.899C415.33,331.3,418.63,331,421.93,331C471.431,331,511.93,371.499,511.93,421z"></path></svg>